<svg width="245" height="256" viewBox="0 0 245 256" fill="none" xmlns="http://www.w3.org/2000/svg">
<g clip-path="url(#clip0_10_2095)">
<path d="M69 12V40H41C34.35 40 29 45.35 29 52V76C29 82.65 34.35 88 41 88H69V116C69 122.65 74.35 128 81 128H105C111.65 128 117 122.65 117 116V88H145C151.65 88 157 82.65 157 76V52C157 45.35 151.65 40 145 40H117V12C117 5.35 111.65 0 105 0H81C74.35 0 69 5.35 69 12ZM236.85 196.1C245.75 189.55 247.65 177.05 241.1 168.15C234.55 159.25 222.05 157.35 213.15 163.9L153.3 208H93C88.6 208 85 204.4 85 200C85 195.6 88.6 192 93 192H133C141.85 192 149 184.85 149 176C149 167.15 141.85 160 133 160H53.85C39.3 160 25.2 164.95 13.85 174L-8.6 192H-27C-35.85 192 -43 199.15 -43 208V240C-43 248.85 -35.85 256 -27 256H133.25C147.75 256 161.9 251.35 173.6 242.75L236.9 196.1H236.85Z" fill="#CCDFE9"/>
</g>
<defs>
<clipPath id="clip0_10_2095">
<rect width="288" height="256" fill="white" transform="translate(-43)"/>
</clipPath>
</defs>
</svg>
